<svg data-v-423bf9ae="" xmlns="http://www.w3.org/2000/svg" viewBox="0 0 265 91" class="iconLeft"><!----><!----><!----><g data-v-423bf9ae="" id="c53f3a9d-d9c1-40b9-866e-8cf8d5c50f99" fill="#000000" transform="matrix(4.285714285714286,0,0,4.285714285714286,108.16591059310096,15)"><path d="M6.50 7.99C6.50 6.55 5.47 5.61 3.53 5.61C2.14 5.61 1.47 5.00 1.47 4.00C1.47 3.22 2.20 2.44 3.61 2.44C4.44 2.44 5.07 2.53 5.70 2.72L6.10 3.60L6.40 3.60L6.40 2.24C5.52 1.89 4.73 1.72 3.61 1.72C1.67 1.72 0.66 2.81 0.66 4.03C0.66 5.43 1.61 6.41 3.53 6.41C4.94 6.41 5.67 7 5.67 8.02C5.67 8.89 4.96 9.69 3.44 9.69C2.25 9.69 1.44 9.48 0.56 9.17L0.56 9.88C1.44 10.19 2.25 10.40 3.44 10.40C5.50 10.40 6.50 9.23 6.50 7.99ZM11.75 10.29L11.75 9.59C11.55 9.66 11.24 9.70 11.05 9.70C9.93 9.70 9.55 9.24 9.55 8.26L9.55 4.41L11.75 4.41L11.75 3.72L9.55 3.72L9.55 1.82L8.78 1.93L8.78 3.72L7.38 3.72L7.38 4.41L8.78 4.41L8.78 8.26C8.78 9.63 9.51 10.40 11.05 10.40C11.24 10.40 11.55 10.36 11.75 10.29ZM18.38 3.72L16.25 3.72L16.25 4.03L17.30 4.38L15.40 9.27L13.24 3.72L12.40 3.72L14.99 10.18L13.47 14L14.25 14ZM21.69 10.26L21.69 9.95L20.64 9.60L20.64 0L19.87 0L19.87 10.26ZM28.63 7C28.63 4.79 27.47 3.58 25.69 3.58C23.91 3.58 22.71 4.79 22.71 7C22.71 9.28 24.05 10.40 26.15 10.40C26.74 10.40 27.58 10.26 28.11 10.08L28.11 9.38C27.58 9.56 26.74 9.70 26.15 9.70C24.60 9.70 23.59 8.96 23.51 7.22L28.63 7.22C28.63 7.15 28.63 7.07 28.63 7ZM27.86 6.55L23.52 6.55C23.66 5.07 24.49 4.28 25.69 4.28C26.82 4.28 27.72 5.07 27.86 6.55ZM36.51 10.26L33.31 6.01L36.44 1.86L33.94 1.86L33.94 2.17L34.97 2.52L32.86 5.46L30.25 1.86L29.27 1.86L32.37 6.01L29.19 10.26L30.17 10.26L32.86 6.57L35.53 10.26Z"></path></g><!----><g data-v-423bf9ae="" id="ad20e6de-0005-4c07-9883-973ebf22b5dd" transform="matrix(1.0499666224599693,0,0,1.0499666224599693,-4.534640649451298,-5.256928382600755)" stroke="none" fill="#f58f93"><circle cx="48.351" cy="47.95" r=".525"></circle><path d="M54.818 64.26l.837 2.299h8.483l-.836-2.299z"></path><path d="M68.068 41.598l1.9-21.58c-2.047-1.419-7-4.512-9.363-4.512-.202 0-.377.024-.519.07-6.787 2.21-14.584 24.73-15.134 26.342V66.97c2.373 3.657 8.979 12.794 12.564 13.461.137.026.292.039.459.039 3.467 0 10.897-5.08 12.786-6.412-1.049-1.725-4.478-7.875-5.467-16.053-1.084-8.978 2.239-15.438 2.774-16.407zm-14.205-6.847h9.946v1.168h-9.946v-1.168zm-5.512 28.234c-.934 0-1.693-.76-1.693-1.692 0-.934.76-1.693 1.693-1.693s1.693.76 1.693 1.693a1.695 1.695 0 01-1.693 1.692zm0-6.873c-.934 0-1.693-.76-1.693-1.693s.76-1.692 1.693-1.692 1.693.759 1.693 1.692-.76 1.693-1.693 1.693zm0-6.469c-.934 0-1.693-.759-1.693-1.692s.76-1.693 1.693-1.693 1.693.76 1.693 1.693-.76 1.692-1.693 1.692zm6.486 18.083l-1.261-3.466h-.602v-1.167h11.645v1.167h-.074l1.26 3.466H54.837zM32.7 64.26l-.836 2.299h8.484l.836-2.299z"></path><path d="M38.456 80.437c2.288-.547 5.986-7.063 7.303-9.689v-.525a77.777 77.777 0 01-1.881-2.764l-.093-.144.03-25.679a124.1 124.1 0 011.944-5.305v-3.334c-1.495-4.516-6.085-16.187-9.845-17.421-1.763-.584-6.873 2.341-9.881 4.44l1.9 21.581c.535.97 3.858 7.43 2.773 16.407-.99 8.188-4.427 14.344-5.472 16.06 3.12 2.267 10.449 7.041 13.222 6.373zM31.458 64.26h-.075v-1.167h11.645v1.167h-.602l-1.261 3.466H30.197l1.261-3.466z"></path><circle cx="48.351" cy="54.419" r=".525"></circle><circle cx="48.351" cy="61.292" r=".525"></circle><circle cx="28.229" cy="88.492" r="2.367"></circle><path d="M6.364 34.141l2.148-1.129 2.148 1.129-.41-2.393 1.738-1.693-2.402-.35-1.074-2.176-1.074 2.176-2.401.35 1.737 1.693zM26.757 11.258l1.535-.806 1.534.806-.293-1.708 1.241-1.21-1.715-.25-.767-1.553-.768 1.553-1.715.25 1.241 1.21zM84.604 67.979l1.242 1.21-.293 1.708 1.534-.805 1.534.805-.293-1.708 1.241-1.21-1.715-.249-.767-1.554-.767 1.554zM87.087 13.73l-.993 3.057H82.88l2.599 1.889-.992 3.056 2.6-1.888 2.6 1.888-.993-3.056 2.599-1.889H88.08z"></path><circle cx="79.131" cy="7.509" r="2.367"></circle><circle cx="88.623" cy="48.986" r="1.911"></circle><path d="M14.958 14.669a2.488 2.488 0 00-2.486 2.485c0 1.371 1.115 2.486 2.486 2.486s2.486-1.115 2.486-2.486a2.488 2.488 0 00-2.486-2.485zM21.953 88.635c.327.083.659.158.994.225l.147-.735a21.157 21.157 0 01-.958-.216l-.183.726zM6.521 68.852c0 .33.008.658.024.986l.749-.037a19.905 19.905 0 01.001-1.928l-.749-.037c-.017.34-.025.678-.025 1.016zM7.859 73.607a19.314 19.314 0 01-.376-1.89l-.742.11c.098.656.229 1.316.391 1.962l.727-.182zM9.422 79.318c.342.57.715 1.13 1.111 1.664l.603-.445a20.247 20.247 0 01-1.07-1.605l-.644.386zM18.187 87.285c.601.285 1.224.543 1.85.768l.253-.706a19.656 19.656 0 01-1.782-.739l-.321.677zM9.157 77.232a19.77 19.77 0 01-.738-1.781l-.706.254c.223.623.481 1.244.767 1.848l.677-.321zM16.808 85.696a19.71 19.71 0 01-1.602-1.074l-.448.602c.535.398 1.095.773 1.663 1.115l.387-.643zM13.213 83.95l.505-.555a19.927 19.927 0 01-1.361-1.366l-.557.502c.445.493.92.971 1.413 1.419zM7.656 64.974l-.735-.147c-.067.335-.125.67-.175 1.004l.742.11c.048-.322.104-.645.168-.967zM89.862 76.014l-.75-.016c-.006.328-.024.652-.054.973l.747.068c.03-.338.049-.68.057-1.025zM80.533 88.256a13.21 13.21 0 01-2.035.607l.156.733a13.972 13.972 0 002.15-.642l-.271-.698zM82.447 87.334l.378.646a14.248 14.248 0 001.842-1.28l-.476-.58a13.62 13.62 0 01-1.744 1.214zM85.725 84.648l.561.498c.498-.561.953-1.162 1.354-1.789l-.632-.404a13.742 13.742 0 01-1.283 1.695zM88.007 81.078l.688.299a14.18 14.18 0 00.728-2.123l-.727-.186a13.276 13.276 0 01-.689 2.01zM75.411 89.155l-.016.75a14.116 14.116 0 001.028-.017l-.039-.748c-.322.016-.646.022-.973.015zM88.248 40.377h.75v2h-.75zM88.248 36.377h.75v2h-.75zM88.248 28.377h.75v2h-.75zM88.248 32.377h.75v2h-.75z"></path></g><!----></svg>